<svg width="95" height="98" viewBox="0 0 95 98" fill="none" xmlns="http://www.w3.org/2000/svg">
<path d="M1.49219 49.4297C7.23454 29.7017 27.8824 18.3641 47.6104 24.1064C67.3381 29.8489 78.6759 50.4967 72.9336 70.2246C67.1912 89.9524 46.5432 101.29 26.8154 95.5479C7.08753 89.8055 -4.25007 69.1576 1.49219 49.4297ZM37 50.6143C32.0294 50.6143 28 54.6437 28 59.6143C28 64.5848 32.0295 68.6143 37 68.6143C41.9705 68.6142 46 64.5848 46 59.6143C46 54.6437 41.9705 50.6143 37 50.6143Z" fill="url(#paint0_radial_1779_11062)"/>
<path fill-rule="evenodd" clip-rule="evenodd" d="M13.0189 52.8922C16.9329 39.4456 31.0068 31.7176 44.4534 35.6315C57.9 39.5455 65.6272 53.6194 61.7132 67.066C57.799 80.5123 43.726 88.2405 30.2796 84.3268C16.8332 80.4127 9.10511 66.3387 13.0189 52.8922ZM40.4837 47.2477C33.5902 45.2412 26.3751 49.2028 24.3685 56.0963C22.362 62.9898 26.3237 70.2049 33.2171 72.2115C40.1106 74.2181 47.3257 70.2564 49.3323 63.3629C51.3389 56.4693 47.3773 49.2542 40.4837 47.2477Z" fill="url(#paint1_radial_1779_11062)"/>
<path d="M49.5 44.6143L94.1142 32.6599L61.4543 5.87079e-05L49.5 44.6143ZM89.5 4.61426L86.6716 1.78583L72.1274 16.33L74.9558 19.1584L77.7843 21.9868L92.3284 7.44268L89.5 4.61426Z" fill="black"/>
<defs>
<radialGradient id="paint0_radial_1779_11062" cx="0" cy="0" r="1" gradientUnits="userSpaceOnUse" gradientTransform="translate(37.2128 59.827) rotate(140.561) scale(52.1159)">
<stop stop-color="#F50000"/>
<stop offset="1" stop-color="white" stop-opacity="0"/>
</radialGradient>
<radialGradient id="paint1_radial_1779_11062" cx="0" cy="0" r="1" gradientTransform="matrix(-27.4338 22.5654 -22.5653 -27.4339 37.364 59.9782)" gradientUnits="userSpaceOnUse">
<stop stop-color="#F50000"/>
<stop offset="1" stop-color="white" stop-opacity="0"/>
</radialGradient>
</defs>
</svg>
